<svg width="141" height="139" viewBox="0 0 141 139" fill="none" xmlns="http://www.w3.org/2000/svg">
<path d="M133.522 66.7629C133.53 75.946 131.606 85.0294 127.874 93.4311C124.141 101.833 118.682 109.367 111.847 115.552C109.946 117.274 107.947 118.887 105.86 120.382C103.182 122.301 100.363 124.017 97.4266 125.517H97.3958C96.7699 125.844 96.1338 126.154 95.4925 126.455C95.2001 126.598 94.9128 126.73 94.6153 126.863C92.7582 127.708 90.8532 128.467 88.9004 129.14C87.3613 129.649 85.7813 130.159 84.1858 130.577C74.9827 133.008 65.3628 133.458 55.9704 131.896C54.8571 131.713 53.7593 131.504 52.6666 131.265L51.7432 131.056C48.9557 130.409 46.2138 129.582 43.535 128.58C41.9789 127.999 40.4536 127.362 38.959 126.669C38.3793 126.399 37.7996 126.124 37.2301 125.838C36.8403 125.645 36.4555 125.446 36.0708 125.247C25.6325 119.803 16.8387 111.702 10.5899 101.772C4.34106 91.8427 0.861725 80.4423 0.508151 68.7382C0.154578 57.0342 2.93948 45.447 8.57769 35.1634C14.2159 24.8798 22.5048 16.2691 32.5956 10.2132C42.6865 4.15725 54.2166 0.873631 66.0055 0.698564C77.7943 0.523496 89.4182 3.46328 99.6868 9.21688C109.955 14.9705 118.5 23.3311 124.445 33.4427C130.39 43.5544 133.523 55.0536 133.522 66.7629Z" fill="url(#paint0_linear_1:51)"/>
<path d="M84.432 71.5419C88.6695 75.8726 101.012 92.7266 101.012 92.7266L93.4302 103.767L86.6123 81.8337L84.432 71.5419Z" fill="url(#paint1_linear_1:51)"/>
<path d="M97.3957 125.553C96.7698 125.879 96.1337 126.19 95.4924 126.491C95.2 126.633 94.9127 126.766 94.6152 126.898C92.7581 127.744 90.8531 128.503 88.9003 129.176C87.3612 129.685 85.7812 130.195 84.1857 130.612C74.9827 133.044 65.3627 133.494 55.9703 131.932C54.8571 131.749 53.7592 131.54 52.6665 131.3C48.665 134.041 44.9714 136.359 42.5243 137.414L42.7244 135.717L43.5555 128.62L45.4793 112.108L53.1026 104.786L35.963 106.106C35.963 106.106 37.7636 81.2936 44.7918 76.1885C51.82 71.0834 59.192 66.5081 59.192 66.5081C60.0715 67.0841 61.0403 67.5127 62.0597 67.7768V67.7768C64.4974 68.446 67.0312 68.7026 69.5547 68.5359C72.561 68.3984 75.5672 65.6216 75.7108 65.479C75.7108 65.479 80.4305 66.4113 84.432 71.5623C86.4277 74.2139 87.8606 77.2402 88.6438 80.458C89.6287 84.2232 91.3781 93.017 93.3686 103.64C94.6716 110.477 96.0414 118.059 97.3957 125.553Z" fill="url(#paint2_linear_1:51)"/>
<path d="M101.012 92.747L108.328 101.261L134.055 75.8981L135.03 70.7063L140.16 66.2789L137.877 73.0296V81.8235C137.877 81.8235 118.034 113.769 112.565 115.414C106.168 117.345 93.4404 103.757 93.4404 103.757L101.012 92.747Z" fill="url(#paint3_linear_1:51)"/>
<path d="M74.3052 104.389L80.2715 118.655L87.982 115.363L82.3287 101.403L74.3052 104.389Z" fill="#7E57C2"/>
<path d="M82.616 113.606C81.6566 114.39 80.2253 114.207 78.4503 114.298C76.0656 114.361 73.7784 115.251 71.9864 116.815C69.6009 118.807 62.9318 124.02 56.2627 128.778C55.052 129.639 53.8413 130.49 52.6717 131.326C48.6702 134.067 44.9765 136.385 42.5295 137.439C41.8861 137.757 41.1915 137.958 40.4775 138.036C37.0506 138.122 36.317 130.989 36.1066 125.298C36.0399 123.408 36.0245 121.681 35.9886 120.433C35.845 115.44 35.9886 106.167 35.9886 106.167L53.1282 104.842L51.3122 116.632L50.9941 118.716V118.731L56.1242 116.846L56.2832 116.79L74.495 110.07L75.7519 107.915L76.5522 109.952H76.6292L84.4269 108.934C84.4269 108.934 84.5603 112.021 82.616 113.606Z" fill="url(#paint4_linear_1:51)"/>
<path d="M78.6812 39.2503C78.2349 38.0378 77.8501 37.2124 77.7373 36.9678V36.9067C77.7373 36.9067 77.3422 37.8747 74.3668 37.6404C71.3913 37.406 70.4064 35.9387 70.4064 35.9387C70.4064 35.9387 71.34 39.1179 67.7952 40.4782C64.3837 41.7927 63.0396 40.9419 62.9472 40.8807C63.1268 41.0743 65.7944 43.9071 64.0245 46.1539C62.1931 48.4823 58.0736 48.0238 58.0736 48.0238V48.0544C58.5921 49.2204 59.1726 50.3581 59.8128 51.4628C60.1513 52.0437 60.4848 52.5787 60.8388 53.078V53.1136C61.7473 54.5814 62.9741 55.8294 64.4298 56.7667C63.79 60.4951 61.9525 63.9179 59.192 66.5234V66.5234C60.1207 67.0047 61.0784 67.4283 62.0597 67.7921C63.9733 68.5104 66.5434 69.2237 68.8366 69.025C71.4936 68.7429 73.9489 67.4856 75.7211 65.4994L74.5463 61.0209L73.4896 56.9857C83.0418 54.5657 80.4152 44.0396 78.6812 39.2503ZM72.956 57.1335L73.1253 57.0927L73.3972 57.0163C73.0015 57.1863 72.5835 57.2995 72.1557 57.3526C72.3763 57.2965 72.602 57.2354 72.838 57.1641L72.956 57.1335Z" fill="url(#paint5_linear_1:51)"/>
<path d="M84.432 36.7742C80.4921 40.3712 78.7889 39.3573 78.6812 39.2605V39.2503C78.2348 38.0378 77.8501 37.2124 77.7423 36.9678L77.7167 36.9067C77.7167 36.9067 77.3166 37.8747 74.3411 37.6404C71.3657 37.406 70.3858 35.9387 70.3858 35.9387C70.3858 35.9387 71.3195 39.1179 67.7746 40.4782C64.358 41.7927 63.0139 40.9419 62.9267 40.8807C63.1062 41.0692 65.7739 43.902 64.004 46.1489C62.1725 48.4772 58.0531 48.0238 58.0531 48.0238V48.0493C58.5714 49.217 59.1519 50.3565 59.7922 51.4628C60.1342 52.0403 60.4762 52.5787 60.8182 53.078V53.1136C60.8182 53.1136 59.4126 55.8598 56.904 55.8037C54.3953 55.7477 54.3389 53.2563 54.3389 53.2563C54.3389 53.2563 52.5639 56.4355 47.0798 53.3734C41.5958 50.3114 45.2535 45.8737 45.2535 45.8737C45.2535 45.8737 41.3649 42.9187 41.3649 38.4912C41.3649 34.0637 47.4184 30.696 47.4184 30.696C47.4184 30.696 45.2535 25.5552 48.9062 22.7224C52.5588 19.8897 58.048 21.8104 58.048 21.8104C58.048 21.8104 57.9402 15.2329 63.532 15.3399C69.1238 15.4469 70.3909 18.8452 70.3909 18.8452C70.3909 18.8452 75.4184 14.9833 80.3946 18.621C85.3708 22.2588 83.3239 28.602 83.3239 28.602C83.3239 28.602 88.5412 33.0295 84.432 36.7742Z" fill="url(#paint6_linear_1:51)"/>
<path opacity="0.15" d="M74.5874 61.0056C72.2019 60.2567 67.9593 57.3984 67.9593 57.3984C69.6336 57.5742 71.3254 57.4847 72.9714 57.1335L73.1407 57.0928L73.469 56.9959H73.5152L74.5874 61.0056Z" fill="black"/>
<path opacity="0.15" d="M55.4162 89.5473L53.1026 104.832L51.2865 116.622L47.0593 120.112L56.2576 116.795C56.2576 116.795 53.8721 110.029 55.4162 89.5473Z" fill="black"/>
<path opacity="0.15" d="M52.6563 131.3C53.749 131.54 54.8468 131.749 55.9601 131.932C56.0165 130.887 56.1191 129.833 56.2627 128.778L52.6563 131.3Z" fill="black"/>
<defs>
<linearGradient id="paint0_linear_1:51" x1="67.273" y1="7.86512" x2="65.029" y2="138.076" gradientUnits="userSpaceOnUse">
<stop stop-color="white" stop-opacity="0"/>
<stop offset="1" stop-color="#64B5F6" stop-opacity="0.6"/>
</linearGradient>
<linearGradient id="paint1_linear_1:51" x1="79.4097" y1="67.1654" x2="97.5598" y2="99.279" gradientUnits="userSpaceOnUse">
<stop stop-color="#E57373"/>
<stop offset="1" stop-color="#AD1457"/>
</linearGradient>
<linearGradient id="paint2_linear_1:51" x1="28086.2" y1="39725.5" x2="26174.2" y2="49226.9" gradientUnits="userSpaceOnUse">
<stop stop-color="#E57373"/>
<stop offset="1" stop-color="#AD1457"/>
</linearGradient>
<linearGradient id="paint3_linear_1:51" x1="147.122" y1="78.9397" x2="97.5887" y2="107.833" gradientUnits="userSpaceOnUse">
<stop stop-color="#FFF8E1"/>
<stop offset="1" stop-color="#FFCC80"/>
</linearGradient>
<linearGradient id="paint4_linear_1:51" x1="21597.4" y1="22250.6" x2="18926.7" y2="20437.4" gradientUnits="userSpaceOnUse">
<stop stop-color="#FFF8E1"/>
<stop offset="1" stop-color="#FFCC80"/>
</linearGradient>
<linearGradient id="paint5_linear_1:51" x1="83.7035" y1="44.4387" x2="56.6617" y2="55.652" gradientUnits="userSpaceOnUse">
<stop stop-color="#FFF8E1"/>
<stop offset="1" stop-color="#FFCC80"/>
</linearGradient>
<linearGradient id="paint6_linear_1:51" x1="77.4858" y1="15.1463" x2="46.053" y2="57.9109" gradientUnits="userSpaceOnUse">
<stop stop-color="#FFB74D"/>
<stop offset="1" stop-color="#F4511E"/>
</linearGradient>
</defs>
</svg>
